<svg width="394" height="123" viewBox="0 0 394 123" fill="none" xmlns="http://www.w3.org/2000/svg">
<rect width="393.2" height="122.1" transform="translate(0 0.600006)" fill="#162B48"/>
<path d="M174.4 16.7C181.4 16.7 185.7 21.1 185.7 29V49.4H178.3V31.2C178.3 26.1 175.9 23.4 171.8 23.4C167.8 23.4 164.9 26.2 164.9 31.3V49.4H157.5V31.1C157.5 26.1 155.1 23.3 151 23.3C146.9 23.3 144.1 26.3 144.1 31.3V49.3H136.7V17.3H144.1V22.2C146.2 19.3 149 16.7 153.9 16.7C158.5 16.7 161.8 18.9 163.5 22.3C166.1 18.9 169.5 16.7 174.4 16.7Z" fill="white"/>
<path d="M214.4 49.4V45.5C212.2 48.1 208.8 50.1 204 50.1C197.9 50.1 192.5 46.6 192.5 40.2V40.1C192.5 33.2 198.1 29.8 205.6 29.8C209.5 29.8 212 30.3 214.5 31.1V30.3C214.5 25.9 211.7 23.4 206.6 23.4C203 23.4 200.3 24.2 197.4 25.4L195.4 19.5C198.9 17.9 202.4 16.8 207.7 16.8C217.2 16.8 221.9 21.8 221.9 30.3V49.3H214.4V49.4ZM214.6 35.8C212.7 35.1 210.1 34.5 207.2 34.5C202.6 34.5 199.8 36.4 199.8 39.7V39.8C199.8 42.8 202.5 44.5 206 44.5C210.9 44.5 214.5 41.8 214.5 37.8V35.8H214.6Z" fill="white"/>
<path d="M238.2 49.4H230.8V17.4H238.2V24.6C240.2 19.8 243.9 16.5 249.6 16.8V24.6H249.2C242.7 24.6 238.2 28.8 238.2 37.3V49.4Z" fill="white"/>
<path d="M268.7 50C264.1 50 259.1 48.4 255 45.2L258.3 40.2C261.8 42.8 265.6 44.1 268.9 44.1C272.1 44.1 273.9 42.8 273.9 40.6V40.5C273.9 38 270.5 37.2 266.7 36C261.9 34.7 256.6 32.7 256.6 26.6V26.5C256.6 20.4 261.7 16.7 268.1 16.7C272.1 16.7 276.5 18.1 279.9 20.3L277 25.5C273.9 23.6 270.6 22.5 267.9 22.5C265 22.5 263.4 23.8 263.4 25.7V25.8C263.4 28.1 266.9 29.1 270.7 30.3C275.4 31.8 280.7 33.9 280.7 39.6V39.7C280.7 46.6 275.4 50 268.7 50Z" fill="white"/>
<path d="M298.6 39.4C298.6 42.3 300.1 43.4 302.6 43.4C304.2 43.4 305.7 43 307.2 42.3V48.3C305.4 49.3 303.3 49.9 300.6 49.9C295.2 49.9 291.3 47.5 291.3 40.5V23.7H287.2V17.4H291.3V8.60001H298.7V17.4H307.4V23.7H298.7V39.4H298.6Z" fill="white"/>
<path d="M330.3 50.1C320.5 50.1 313.2 42.6 313.2 33.5C313.2 24.3 320.5 16.7 330.4 16.7C340.3 16.7 347.5 24.2 347.5 33.4C347.6 42.5 340.3 50.1 330.3 50.1ZM330.3 23.1C324.4 23.1 320.6 27.7 320.6 33.4C320.6 39.1 324.7 43.8 330.4 43.8C336.4 43.8 340.2 39.2 340.2 33.5C340.2 27.8 336.1 23.1 330.3 23.1Z" fill="white"/>
<path d="M362 49.4H354.6V17.4H362V22.4C364.1 19.4 367.1 16.8 372.1 16.8C379.4 16.8 383.6 21.7 383.6 29.1V49.5H376.2V31.2C376.2 26.2 373.7 23.4 369.3 23.4C365 23.4 362 26.4 362 31.3V49.4Z" fill="white"/>
<path d="M36.6 102.5H41.8L49.4 82.1L57 102.5L64.6 82.2L72.2 102.5H77.4L64.6 68.3L57 88.6L49.4 68.3L36.6 102.5Z" fill="white"/>
<path d="M93.3 91L94.9 86.1L77.8 72.6L99.6 71.7L82.5 58.2L104.3 57.3L105.9 52.4L69.3 53.9L86.4 67.4L64.6 68.3L93.3 91Z" fill="white"/>
<path d="M99.8 33.8L95.6 30.7L77.5 42.7L83.3 21.8L65.2 33.8L71 12.9L66.8 9.90001L57 45L75.1 33L69.3 53.9L99.8 33.8Z" fill="white"/>
<path d="M47.1 9.90001L42.9 12.9L48.8 33.8L30.6 21.8L36.5 42.7L18.3 30.7L14.1 33.7L44.7 53.9L38.8 33L57 45L47.1 9.90001Z" fill="white"/>
<path d="M20.6 91L19 86.1L36.1 72.6L14.3 71.7L31.4 58.2L9.6 57.3L8 52.4L44.6 53.9L27.6 67.4L49.4 68.3L20.6 91Z" fill="white"/>
<path d="M159.981 100.7H155.497V84.5672C155.497 78.7339 153.328 75.8172 148.989 75.8172C146.802 75.8172 144.96 76.6649 143.466 78.3602C141.971 80.0373 141.223 82.1974 141.223 84.8406V100.7H136.739V59.2469H141.223V77.3484H141.333C143.484 73.812 146.546 72.0438 150.52 72.0438C156.828 72.0438 159.981 75.8445 159.981 83.4461V100.7ZM185.761 101.356C181.623 101.356 178.314 100.053 175.835 97.4461C173.374 94.8211 172.144 91.3484 172.144 87.0281C172.144 82.325 173.429 78.6518 175.999 76.0086C178.57 73.3654 182.042 72.0438 186.417 72.0438C190.592 72.0438 193.846 73.3289 196.179 75.8992C198.53 78.4695 199.706 82.0333 199.706 86.5906C199.706 91.0568 198.439 94.6388 195.905 97.3367C193.39 100.016 190.008 101.356 185.761 101.356ZM186.089 75.8172C183.209 75.8172 180.93 76.8016 179.253 78.7703C177.576 80.7208 176.737 83.4188 176.737 86.8641C176.737 90.1818 177.585 92.7977 179.28 94.7117C180.976 96.6258 183.245 97.5828 186.089 97.5828C188.987 97.5828 191.211 96.644 192.761 94.7664C194.329 92.8888 195.112 90.2182 195.112 86.7547C195.112 83.2547 194.329 80.5568 192.761 78.6609C191.211 76.7651 188.987 75.8172 186.089 75.8172ZM216.955 100.7H212.47V59.2469H216.955V100.7ZM255.531 100.7H251.047V95.9422H250.938C248.859 99.5516 245.651 101.356 241.312 101.356C237.794 101.356 234.978 100.108 232.863 97.6102C230.767 95.0945 229.719 91.6766 229.719 87.3563C229.719 82.7261 230.885 79.0164 233.219 76.2274C235.552 73.4383 238.66 72.0438 242.543 72.0438C246.389 72.0438 249.188 73.5568 250.938 76.5828H251.047V59.2469H255.531V100.7ZM251.047 88.0399V83.9109C251.047 81.6505 250.299 79.7365 248.805 78.1688C247.31 76.6011 245.414 75.8172 243.117 75.8172C240.383 75.8172 238.232 76.8198 236.664 78.825C235.096 80.8302 234.312 83.6011 234.312 87.1375C234.312 90.3641 235.06 92.9162 236.555 94.7938C238.068 96.6531 240.091 97.5828 242.625 97.5828C245.122 97.5828 247.146 96.6805 248.695 94.8758C250.263 93.0711 251.047 90.7925 251.047 88.0399ZM272.506 65.5906C271.704 65.5906 271.021 65.3172 270.455 64.7703C269.89 64.2234 269.608 63.5307 269.608 62.6922C269.608 61.8537 269.89 61.1609 270.455 60.6141C271.021 60.049 271.704 59.7664 272.506 59.7664C273.327 59.7664 274.019 60.049 274.584 60.6141C275.168 61.1609 275.459 61.8537 275.459 62.6922C275.459 63.4943 275.168 64.1779 274.584 64.743C274.019 65.3081 273.327 65.5906 272.506 65.5906ZM274.694 100.7H270.209V72.7H274.694V100.7ZM312.614 100.7H308.13V84.7313C308.13 78.7886 305.96 75.8172 301.622 75.8172C299.38 75.8172 297.52 76.6649 296.044 78.3602C294.585 80.0373 293.856 82.1609 293.856 84.7313V100.7H289.372V72.7H293.856V77.3484H293.966C296.08 73.812 299.143 72.0438 303.153 72.0438C306.216 72.0438 308.558 73.0373 310.18 75.0242C311.803 76.993 312.614 79.8458 312.614 83.5828V100.7ZM350.589 98.4578C350.589 108.739 345.667 113.88 335.823 113.88C332.36 113.88 329.334 113.223 326.745 111.911V107.427C329.899 109.177 332.907 110.052 335.769 110.052C342.659 110.052 346.105 106.388 346.105 99.0594V95.9969H345.995C343.863 99.5698 340.654 101.356 336.37 101.356C332.889 101.356 330.081 100.117 327.948 97.6375C325.834 95.1401 324.777 91.7951 324.777 87.6024C324.777 82.8445 325.916 79.062 328.195 76.2547C330.491 73.4474 333.627 72.0438 337.601 72.0438C341.374 72.0438 344.172 73.5568 345.995 76.5828H346.105V72.7H350.589V98.4578ZM346.105 88.0399V83.9109C346.105 81.687 345.348 79.782 343.835 78.1961C342.34 76.6102 340.472 75.8172 338.23 75.8172C335.459 75.8172 333.29 76.8289 331.722 78.8524C330.154 80.8576 329.37 83.674 329.37 87.3016C329.37 90.4188 330.118 92.9162 331.613 94.7938C333.126 96.6531 335.122 97.5828 337.601 97.5828C340.116 97.5828 342.158 96.6896 343.726 94.9031C345.312 93.1167 346.105 90.8289 346.105 88.0399ZM363.572 99.6883V94.8758C366.015 96.6805 368.703 97.5828 371.638 97.5828C375.576 97.5828 377.545 96.2703 377.545 93.6453C377.545 92.8979 377.371 92.269 377.025 91.7586C376.697 91.23 376.241 90.7651 375.658 90.3641C375.093 89.963 374.418 89.6076 373.634 89.2977C372.869 88.9695 372.039 88.6323 371.146 88.2859C369.907 87.7938 368.813 87.3016 367.865 86.8094C366.935 86.299 366.151 85.7339 365.513 85.1141C364.893 84.4761 364.42 83.756 364.091 82.9539C363.782 82.1518 363.627 81.213 363.627 80.1375C363.627 78.825 363.927 77.6675 364.529 76.6649C365.13 75.644 365.933 74.7964 366.935 74.1219C367.938 73.4292 369.077 72.9096 370.353 72.5633C371.647 72.2169 372.978 72.0438 374.345 72.0438C376.77 72.0438 378.939 72.463 380.853 73.3016V77.8406C378.793 76.4917 376.423 75.8172 373.744 75.8172C372.905 75.8172 372.149 75.9175 371.474 76.118C370.8 76.3003 370.216 76.5646 369.724 76.9109C369.25 77.2573 368.877 77.6766 368.603 78.1688C368.348 78.6427 368.22 79.1714 368.22 79.7547C368.22 80.4839 368.348 81.0945 368.603 81.5867C368.877 82.0789 369.268 82.5164 369.779 82.8992C370.289 83.282 370.909 83.6284 371.638 83.9383C372.367 84.2482 373.197 84.5854 374.127 84.95C375.366 85.424 376.478 85.9162 377.462 86.4266C378.447 86.9188 379.285 87.4839 379.978 88.1219C380.671 88.7417 381.199 89.4617 381.564 90.282C381.947 91.1024 382.138 92.0776 382.138 93.2078C382.138 94.5932 381.828 95.7964 381.209 96.8172C380.607 97.838 379.796 98.6857 378.775 99.3602C377.754 100.035 376.578 100.536 375.248 100.864C373.917 101.192 372.522 101.356 371.064 101.356C368.184 101.356 365.686 100.8 363.572 99.6883Z" fill="white"/>
</svg>
