<svg xmlns="http://www.w3.org/2000/svg" xmlns:xlink="http://www.w3.org/1999/xlink" id="Logo" x="0px" y="0px" width="850.39px" height="255.118px" viewBox="0 0 850.39 255.118" xml:space="preserve">
<g>
	<g>
		<g>
			<path fill="#182A47" d="M379.863,39.405c14.824,0,23.848,9.41,23.848,26.037v43.439h-15.598V70.214     c0-10.831-5.026-16.63-13.792-16.63c-8.509,0-14.566,5.929-14.566,16.886v38.412h-15.597V70.085     c0-10.572-5.157-16.501-13.795-16.501c-8.635,0-14.563,6.444-14.563,17.015v38.283h-15.598v-68.06H315.8v10.314     c4.384-6.06,10.313-11.731,20.754-11.731c9.795,0,16.627,4.769,20.235,11.987C362.333,44.174,369.551,39.405,379.863,39.405"></path>
			<path fill="#182A47" d="M464.847,80.009c-3.994-1.546-9.54-2.705-15.6-2.705c-9.793,0-15.595,3.994-15.595,10.954v0.259     c0,6.444,5.802,10.054,13.147,10.054c10.312,0,18.047-5.802,18.047-14.309V80.009z M464.459,108.882v-8.378     c-4.64,5.543-11.731,9.796-22.043,9.796c-12.889,0-24.233-7.349-24.233-21.009V89.03c0-14.693,11.731-21.91,27.587-21.91     c8.249,0,13.534,1.157,18.818,2.833v-1.676c0-9.408-5.928-14.564-16.758-14.564c-7.602,0-13.276,1.676-19.462,4.255     l-4.255-12.504c7.477-3.351,14.824-5.672,25.911-5.672c20.107,0,29.905,10.57,29.905,28.744v40.346H464.459z"></path>
			<path fill="#182A47" d="M514.893,108.882h-15.598v-68.06h15.598v15.339c4.252-10.183,12.114-17.146,24.102-16.63v16.503h-0.901     c-13.663,0-23.2,8.893-23.2,26.939V108.882z"></path>
			<path fill="#182A47" d="M579.322,110.173c-9.668,0-20.367-3.482-28.875-10.183l6.961-10.572c7.346,5.545,15.339,8.378,22.3,8.378     c6.702,0,10.569-2.833,10.569-7.348v-0.254c0-5.287-7.219-7.092-15.209-9.542c-10.057-2.835-21.27-6.961-21.27-19.979v-0.258     c0-12.889,10.697-20.755,24.233-20.755c8.509,0,17.788,2.966,25.007,7.734l-6.188,11.087c-6.574-3.997-13.534-6.444-19.205-6.444     c-6.059,0-9.539,2.835-9.539,6.831v0.258c0,4.898,7.348,6.959,15.341,9.538c9.923,3.093,21.138,7.605,21.138,19.852v0.26     C604.586,103.083,593.5,110.173,579.322,110.173"></path>
			<path fill="#182A47" d="M642.396,87.613c0,6.059,3.094,8.507,8.379,8.507c3.478,0,6.573-0.772,9.666-2.318v12.759     c-3.865,2.194-8.249,3.483-14.05,3.483c-11.472,0-19.592-5.027-19.592-19.981V54.229h-8.636V40.822h8.636V22.133h15.597v18.689     h18.301v13.407h-18.301V87.613z"></path>
			<path fill="#182A47" d="M709.501,53.068c-12.504,0-20.497,9.795-20.497,21.782c0,12.119,8.639,22.044,20.755,22.044     c12.631,0,20.624-9.796,20.624-21.785C730.383,62.992,721.744,53.068,709.501,53.068 M709.501,110.431     c-20.755,0-36.094-15.857-36.094-35.321c0-19.592,15.47-35.704,36.352-35.704s36.221,15.853,36.221,35.445     C745.979,94.315,730.512,110.431,709.501,110.431"></path>
			<path fill="#182A47" d="M776.543,108.882h-15.597v-68.06h15.597v10.57c4.384-6.444,10.701-11.987,21.267-11.987     c15.341,0,24.233,10.312,24.233,26.166v43.311h-15.595V70.214c0-10.572-5.287-16.63-14.566-16.63     c-9.021,0-15.339,6.315-15.339,16.884V108.882z"></path>
			<path fill="#182A47" d="M300.434,124.683h9.349v36.786c4.128-6.798,10.686-12.261,21.491-12.261     c15.176,0,24.04,10.198,24.04,25.133v38.977h-9.351v-36.669c0-11.655-6.313-18.941-17.362-18.941     c-10.805,0-18.818,7.893-18.818,19.672v35.938h-9.349V124.683z"></path>
			<path fill="#182A47" d="M430.754,182.233v-0.245c0-13.476-10.076-24.524-23.311-24.524c-13.599,0-22.949,11.049-22.949,24.285     v0.239c0,13.479,9.958,24.405,23.191,24.405C421.285,206.394,430.754,195.467,430.754,182.233 M374.903,182.233v-0.245     c0-17.726,13.841-32.78,32.782-32.78c18.818,0,32.661,14.814,32.661,32.541v0.239c0,17.728-13.965,32.786-32.903,32.786     C388.623,214.774,374.903,199.96,374.903,182.233"></path>
		</g>
		<rect x="461.635" y="124.683" fill="#182A47" width="9.35" height="88.633"></rect>
		<g>
			<path fill="#182A47" d="M547.031,181.99v-0.241c0-14.45-11.05-24.163-22.704-24.163c-12.141,0-22.097,8.984-22.097,24.163v0.241     c0,14.813,10.318,24.281,22.097,24.281C535.981,206.271,547.031,196.438,547.031,181.99 M492.637,182.11v-0.24     c0-20.521,14.936-32.662,29.99-32.662c11.657,0,19.185,6.313,24.041,13.354v-37.88h9.35v88.633h-9.35v-12.629     c-5.1,7.529-12.509,13.965-24.041,13.965C507.572,214.651,492.637,202.754,492.637,182.11"></path>
		</g>
		<path fill="#182A47" d="M581.309,150.545h9.352v62.771h-9.352V150.545z M580.705,126.502h10.684v10.323h-10.684V126.502z"></path>
		<g>
			<path fill="#182A47" d="M615.957,150.545h9.349v10.927c4.128-6.801,10.687-12.266,21.492-12.266     c15.175,0,24.039,10.2,24.039,25.137v38.973h-9.35v-36.667c0-11.655-6.313-18.941-17.362-18.941     c-10.807,0-18.819,7.893-18.819,19.67v35.938h-9.349V150.545z"></path>
			<path fill="#182A47" d="M745.063,178.954v-0.241c0-12.871-11.171-21.249-23.066-21.249c-11.9,0-21.735,8.258-21.735,21.129v0.241     c0,12.626,10.078,21.367,21.735,21.367C733.892,200.201,745.063,191.582,745.063,178.954 M693.584,224.244l4.248-7.287     c7.164,5.224,15.178,8.013,24.164,8.013c13.838,0,22.824-7.649,22.824-22.339v-7.404c-5.463,7.282-13.112,13.232-24.645,13.232     c-15.059,0-29.505-11.29-29.505-29.383v-0.242c0-18.334,14.568-29.626,29.505-29.626c11.773,0,19.425,5.828,24.521,12.627v-11.29     h9.35v51.842c0,9.714-2.912,17.121-8.011,22.221c-5.587,5.584-13.965,8.378-23.92,8.378     C711.675,232.985,701.963,230.071,693.584,224.244"></path>
			<path fill="#182A47" d="M773.272,205.303l4.736-6.679c6.799,5.101,14.328,8.015,21.73,8.015c7.529,0,12.994-3.887,12.994-9.957     v-0.243c0-6.313-7.407-8.743-15.665-11.049c-9.833-2.794-20.762-6.193-20.762-17.728v-0.241c0-10.808,8.984-17.97,21.372-17.97     c7.647,0,16.148,2.671,22.579,6.919l-4.248,7.044c-5.827-3.763-12.504-6.07-18.576-6.07c-7.406,0-12.143,3.885-12.143,9.104     v0.245c0,5.949,7.772,8.253,16.15,10.806c9.712,2.914,20.155,6.677,20.155,17.968v0.243c0,11.897-9.835,18.821-22.343,18.821     C790.27,214.531,780.314,211.01,773.272,205.303"></path>
		</g>
	</g>
	<g>
		<polygon fill="#1D7A9B" points="88.725,221.57 99.679,221.57 115.758,178.361 131.839,221.57 147.896,178.416 163.959,221.57     174.909,221.57 147.896,148.983 131.839,192.134 115.758,148.922   "></polygon>
		<polygon fill="#3094B4" points="208.589,197.146 211.977,186.729 175.85,158.081 221.913,156.143 185.838,127.535     231.839,125.597 235.223,115.18 157.843,118.435 193.922,147.047 147.852,148.989   "></polygon>
		<polygon fill="#4E9FBC" points="222.366,75.554 213.504,69.113 175.098,94.619 187.485,50.211 149.13,75.683 161.503,31.331     152.642,24.893 131.825,99.495 170.186,74.022 157.794,118.433   "></polygon>
		<polygon fill="#005B84" points="110.996,24.827 102.135,31.266 114.526,75.674 76.115,50.17 88.489,94.519 50.136,69.046     41.271,75.485 105.789,118.332 93.419,73.98 131.831,99.489   "></polygon>
		<polygon fill="#006B90" points="54.979,197.146 51.591,186.729 87.718,158.081 41.652,156.141 77.732,127.532 31.729,125.595     28.345,115.178 105.726,118.435 69.646,147.045 115.716,148.987   "></polygon>
	</g>
</g>
</svg>